<?xml version="1.0" standalone="no"?>
<!DOCTYPE svg PUBLIC "-//W3C//DTD SVG 1.1//EN" "http://www.w3.org/Graphics/SVG/1.1/DTD/svg11.dtd">
<svg xmlns="http://www.w3.org/2000/svg" width="1200" height="650" viewBox="0 0 1200 650" fill="none">
<path d="M353.217 288.222C352.761 272.2 351.678 257.26 350.081 243.348C359.119 244.973 366.418 245.771 371.949 245.771C377.422 245.771 384.664 244.973 393.787 243.348C392.133 257.26 391.079 272.2 390.622 288.222C390.138 304.245 389.881 319.526 389.881 334.066V384.529C389.881 399.097 390.138 414.379 390.622 430.373C391.079 446.395 392.133 460.878 393.787 473.793C386.317 473.138 379.047 472.852 371.949 472.852C364.821 472.852 357.523 473.166 350.081 473.793C351.678 460.878 352.761 446.395 353.217 430.373C353.702 414.35 353.959 399.069 353.959 384.529V334.066C353.959 319.526 353.702 304.245 353.217 288.222Z" fill="#2F2A76"/>
<path d="M476.465 288.222C475.981 272.2 474.926 257.26 473.301 243.348C482.338 244.973 489.637 245.771 495.139 245.771C497.734 245.771 500.556 245.514 503.607 245.03C506.686 244.545 510.335 243.975 514.526 243.348C513.585 256.291 513.072 269.235 513.072 282.178H514.041C531.09 253.041 555.153 238.501 586.086 238.501C594.154 238.501 602.08 239.698 609.778 242.122C617.504 244.545 624.517 247.852 630.818 252.072C637.119 256.291 642.507 261.366 647.04 267.353C651.545 273.34 654.595 279.726 656.192 286.512H657.161C664.973 270.974 675.607 259.085 689.035 250.846C702.492 242.606 718.001 238.472 735.535 238.472C746.226 238.472 756.09 239.926 765.185 242.834C774.28 245.742 782.148 250.275 788.791 256.434C795.406 262.563 800.651 270.489 804.358 280.211C808.092 289.904 809.974 301.565 809.974 315.164C809.974 320.666 809.803 326.653 809.49 333.097C809.147 339.568 808.805 347.095 808.492 355.677C808.178 364.23 807.836 373.951 807.551 384.785C807.209 395.619 807.066 408.163 807.066 422.39C807.066 431.114 807.152 439.553 807.294 447.621C807.437 455.689 807.864 464.442 808.492 473.822C804.956 473.166 801.364 472.881 797.829 472.881H787.622H776.96C773.396 472.881 769.832 473.194 766.268 473.822C767.238 465.753 768.293 449.417 769.433 424.813C770.545 400.238 771.144 365.94 771.144 321.949C771.144 313.881 770.231 306.269 768.464 299.141C766.668 292.043 763.817 285.884 759.911 280.724C756.005 275.564 750.816 271.43 744.316 268.351C737.844 265.3 729.719 263.732 719.968 263.732C708.279 263.732 698.386 266.013 690.261 270.546C682.107 275.079 675.778 280.41 671.245 286.569C668.622 290.132 666.598 293.668 665.144 297.231C663.661 300.795 662.521 306.212 661.751 313.482C660.924 320.752 660.354 330.959 660.041 344.045C659.727 357.159 659.556 375.177 659.556 398.156C659.556 412.069 659.784 424.756 660.297 436.246C660.782 447.735 661.352 460.251 661.979 473.85C654.624 473.194 647.582 472.909 640.853 472.909C634.154 472.909 627.112 473.223 619.756 473.85C621.182 456.06 622.179 437.956 622.75 419.51C623.348 401.093 623.633 382.961 623.633 365.17C623.633 349.975 623.548 338.086 623.405 329.505C623.234 320.952 622.807 314.138 622.179 309.12C621.552 304.102 620.64 299.997 619.557 296.747C618.416 293.525 616.905 289.961 614.966 286.084C611.403 279.954 605.843 274.68 598.317 270.318C590.733 265.956 582.921 263.761 574.853 263.761C553.585 263.761 537.99 270.717 527.983 284.63C518.004 298.543 513.015 318.101 513.015 343.332V384.557C513.015 399.126 513.243 414.407 513.728 430.401C514.212 446.424 515.267 460.907 516.892 473.822C509.451 473.166 502.181 472.881 495.054 472.881C487.926 472.881 480.656 473.194 473.215 473.822C474.84 460.907 475.895 446.424 476.38 430.401C476.864 414.379 477.093 399.097 477.093 384.557V334.095C477.178 319.526 476.95 304.245 476.465 288.222Z" fill="#0581C1"/>
<path d="M875.062 282.406C879.909 272.542 886.609 264.388 895.19 257.916C903.772 251.416 913.665 246.598 924.812 243.348C935.959 240.126 947.848 238.472 960.449 238.472C966.608 238.472 972.509 238.643 978.183 238.957C983.828 239.299 991.012 239.784 999.765 240.411C1007.21 241.067 1013.82 241.551 1019.66 241.865C1025.51 242.179 1030.18 242.35 1033.75 242.35C1051.88 242.35 1064.97 241.551 1073.06 239.926C1072.72 241.551 1072.46 243.234 1072.32 245.03C1072.15 246.797 1072.09 248.508 1072.09 250.133C1072.09 251.758 1072.15 253.469 1072.32 255.236C1072.46 257.004 1072.72 258.714 1073.06 260.34C1063.66 259.684 1054.53 258.971 1045.64 258.144C1036.74 257.346 1027.93 256.776 1019.21 256.462L1018.24 257.431C1028.25 262.934 1036.34 271.43 1042.5 282.919C1048.63 294.409 1051.71 306.297 1051.71 318.585C1051.71 342.847 1043.53 361.835 1027.22 375.577C1010.91 389.347 988.959 396.218 961.476 396.218C956.971 396.218 952.524 396.047 948.162 395.733C943.828 395.419 939.324 395.248 934.819 395.248C929.003 395.248 923.558 397.358 918.54 401.549C913.551 405.769 911.042 411.1 911.042 417.572C911.042 426.011 913.066 432.14 917.114 436.018C921.134 439.895 928.661 442.005 939.666 442.347C948.76 442.66 957.627 442.917 966.379 443.059C975.075 443.23 983.999 443.487 993.093 443.801C1007.95 444.114 1020.63 445.91 1031.15 449.132C1041.65 452.382 1050.2 456.744 1056.84 462.247C1063.48 467.749 1068.33 474.05 1071.38 481.177C1074.49 488.305 1076 496.059 1076 504.47C1076 515.788 1073.8 527.278 1069.47 538.938C1065.08 550.57 1058.3 561.09 1049.06 570.47C1039.85 579.85 1027.96 587.633 1013.39 593.763C998.852 599.892 981.404 603 960.991 603C929.63 603 904.884 596.756 886.751 584.326C868.648 571.867 859.581 554.79 859.581 533.122C859.581 524.712 861.092 516.957 864.2 509.83C867.279 502.702 871.213 496.401 876.06 490.928C880.935 485.425 886.438 481.063 892.567 477.813C898.697 474.591 905.055 472.168 911.498 470.543V469.574C901.462 466.666 893.879 461.819 888.69 455.005C883.501 448.22 880.907 440.123 880.907 430.743C880.907 425.241 881.962 420.252 884.071 415.718C886.181 411.214 888.833 407.165 892.054 403.602C895.304 400.067 899.039 397.13 903.23 394.878C907.421 392.625 911.469 391.171 915.375 390.516V389.546C900.493 383.075 888.833 373.951 880.422 362.148C871.983 350.345 867.821 335.549 867.821 317.758C867.764 303.988 870.187 292.271 875.062 282.406ZM1023.06 484.484C1011.71 476.73 992.979 472.852 966.75 472.852C942.488 472.852 923.7 476.815 910.472 484.741C897.186 492.667 890.6 506.979 890.6 527.677C890.6 538.653 892.453 548.033 896.188 555.816C899.866 563.599 904.912 569.9 911.184 574.747C917.513 579.593 925.04 583.157 933.764 585.409C942.488 587.662 951.868 588.802 961.903 588.802C971.597 588.802 981.119 587.519 990.499 584.925C999.879 582.33 1008.23 578.453 1015.5 573.293C1022.77 568.132 1028.67 561.575 1033.21 553.649C1037.74 545.724 1039.99 536.23 1039.99 525.254C1039.99 505.838 1034.35 492.239 1023.06 484.484ZM999.223 268.579C989.529 257.916 976.757 252.556 960.906 252.556C943.457 252.556 929.83 258.458 920.165 270.261C910.472 282.064 905.625 297.859 905.625 317.587C905.625 337.943 910.044 354.052 918.939 365.855C927.863 377.658 941.69 383.559 960.421 383.559C969.801 383.559 977.812 381.706 984.455 377.971C991.069 374.265 996.571 369.247 1000.96 362.947C1005.32 356.646 1008.55 349.347 1010.66 341.108C1012.77 332.869 1013.79 324.202 1013.79 315.164C1013.79 294.779 1008.94 279.242 999.223 268.579Z" fill="#0C4693"/>
<path d="M190.54 382.59C190.54 363.973 175.43 348.863 156.784 348.863C138.139 348.863 123 363.973 123 382.59C123 401.235 138.11 416.346 156.784 416.346C175.43 416.346 190.54 401.235 190.54 382.59Z" fill="#0581C1"/>
<path d="M702.321 80.7557C702.321 62.1387 687.211 47 668.565 47C649.948 47 634.838 62.1102 634.838 80.7557C634.838 99.3727 649.948 114.511 668.565 114.511C687.211 114.511 702.321 99.4012 702.321 80.7557Z" fill="#0581C1"/>
<path d="M267.375 254.182C267.375 228.808 246.819 208.252 221.474 208.252C196.071 208.252 175.544 228.808 175.544 254.182C175.544 279.555 196.1 300.111 221.474 300.111C246.819 300.111 267.375 279.555 267.375 254.182Z" fill="#0581C1"/>
<path d="M559.829 94.8394C559.829 71.0336 540.499 51.7324 516.694 51.7324C492.888 51.7324 473.615 71.0336 473.615 94.8394C473.615 118.645 492.916 137.975 516.694 137.975C540.499 137.975 559.829 118.645 559.829 94.8394Z" fill="#0581C1"/>
<path d="M422.982 162.322C422.982 125.545 393.217 95.7518 356.44 95.7518C319.662 95.7518 289.898 125.545 289.898 162.322C289.898 199.072 319.662 228.865 356.44 228.865C393.217 228.865 422.982 199.072 422.982 162.322Z" fill="#2F2A76"/>
<path d="M160.776 564.341H168.815C166.706 568.132 163.826 571.069 160.234 573.15C156.642 575.26 152.679 576.286 148.345 576.286C142.045 576.286 136.599 573.977 132.066 569.358C127.505 564.74 125.252 559.209 125.252 552.766C125.252 546.265 127.505 540.763 132.009 536.23C136.514 531.697 141.988 529.445 148.431 529.445C157.583 529.445 164.482 533.579 169.186 541.818H161.289C157.64 537.598 153.392 535.46 148.573 535.46C143.926 535.46 139.992 537.142 136.742 540.535C133.492 543.899 131.867 548.005 131.867 552.766C131.867 557.498 133.492 561.604 136.77 565.053C140.049 568.532 143.926 570.242 148.431 570.242C153.221 570.299 157.354 568.332 160.776 564.341Z" fill="#2F2A76"/>
<path d="M206.506 529.473C213.034 529.473 218.594 531.754 223.127 536.287C227.689 540.849 229.941 546.38 229.941 552.908C229.941 559.352 227.66 564.854 223.07 569.444C218.508 574.006 212.977 576.315 206.477 576.315C199.977 576.315 194.446 574.034 189.884 569.444C185.323 564.854 183.013 559.352 183.013 552.908C183.013 546.38 185.294 540.82 189.827 536.287C194.446 531.754 199.977 529.473 206.506 529.473ZM206.506 570.299C211.267 570.299 215.287 568.646 218.508 565.31C221.73 561.974 223.326 557.84 223.326 552.88C223.326 548.005 221.701 543.899 218.451 540.535C215.201 537.171 211.21 535.489 206.477 535.489C201.744 535.489 197.753 537.171 194.503 540.535C191.253 543.899 189.628 548.005 189.628 552.88C189.628 557.783 191.253 561.917 194.503 565.282C197.81 568.617 201.773 570.299 206.506 570.299Z" fill="#2F2A76"/>
<path d="M295.314 530.357V575.431H288.757V537.399L273.418 575.431H269.427L254.089 537.399V575.431H247.531V530.357H257.881L271.394 564.882L284.965 530.357H295.314Z" fill="#2F2A76"/>
<path d="M362.968 530.357V575.431H356.411V537.399L341.072 575.431H337.081L321.743 537.399V575.431H315.185V530.357H325.506L339.048 564.882L352.619 530.357H362.968Z" fill="#2F2A76"/>
<path d="M405.989 530.357H412.546V561.661C412.546 565.709 411.178 569.102 408.412 571.81C405.305 574.832 401.599 576.343 397.322 576.343C393.074 576.343 389.539 574.946 386.659 572.124C383.78 569.301 382.326 565.823 382.326 561.689V530.385H388.883V560.805C388.883 563.742 389.653 566.051 391.193 567.762C392.732 569.473 394.813 570.328 397.465 570.328C401.028 570.328 403.566 568.874 405.105 565.937C405.704 564.854 405.989 563.143 405.989 560.805V530.357Z" fill="#2F2A76"/>
<path d="M467.77 530.357V575.431H460.927L438.519 540.62V575.431H431.961V530.357H439.117L461.156 564.683V530.357H467.77Z" fill="#2F2A76"/>
<path d="M494.113 530.357H487.556V575.431H494.113V530.357Z" fill="#2F2A76"/>
<path d="M547.228 564.341H555.267C553.158 568.132 550.278 571.069 546.686 573.15C543.094 575.26 539.131 576.286 534.797 576.286C528.497 576.286 523.051 573.977 518.518 569.358C513.956 564.74 511.704 559.209 511.704 552.766C511.704 546.265 513.956 540.763 518.461 536.23C522.966 531.697 528.439 529.445 534.883 529.445C544.034 529.445 550.934 533.579 555.638 541.818H547.741C544.091 537.598 539.843 535.46 535.025 535.46C530.378 535.46 526.444 537.142 523.194 540.535C519.944 543.899 518.318 548.005 518.318 552.766C518.318 557.498 519.944 561.604 523.222 565.053C526.501 568.532 530.378 570.242 534.883 570.242C539.701 570.299 543.806 568.332 547.228 564.341Z" fill="#2F2A76"/>
<path d="M591.105 530.357L608.211 575.431H601.254L596.265 562.117H580.043L575.054 575.431H568.097L585.203 530.357H591.105ZM582.381 556.101H593.927L588.197 538.938L582.381 556.101Z" fill="#2F2A76"/>
<path d="M632.586 536.458V575.431H625.971V536.458H617.304V530.357H641.167V536.458H632.586Z" fill="#2F2A76"/>
<path d="M663.805 530.357H657.248V575.431H663.805V530.357Z" fill="#2F2A76"/>
<path d="M704.83 529.473C711.359 529.473 716.919 531.754 721.452 536.287C726.013 540.849 728.266 546.38 728.266 552.908C728.266 559.352 725.985 564.854 721.395 569.444C716.833 574.006 711.302 576.315 704.802 576.315C698.302 576.315 692.771 574.034 688.209 569.444C683.619 564.854 681.338 559.352 681.338 552.908C681.338 546.38 683.619 540.82 688.152 536.287C692.742 531.754 698.302 529.473 704.83 529.473ZM704.83 570.299C709.62 570.299 713.611 568.646 716.833 565.31C720.055 561.974 721.68 557.84 721.68 552.88C721.68 548.005 720.055 543.899 716.805 540.535C713.554 537.171 709.563 535.489 704.83 535.489C700.098 535.489 696.106 537.171 692.856 540.535C689.606 543.899 687.981 548.005 687.981 552.88C687.981 557.783 689.606 561.917 692.856 565.282C696.106 568.617 700.098 570.299 704.83 570.299Z" fill="#2F2A76"/>
<path d="M781.664 530.357V575.431H774.85L752.413 540.62V575.431H745.855V530.357H753.011L775.05 564.683V530.357H781.664Z" fill="#2F2A76"/>
<path d="M824.971 542.046H818.271C818.129 540.05 817.501 538.482 816.389 537.285C815.249 536.087 813.852 535.489 812.198 535.489C810.573 535.489 809.148 536.116 807.951 537.342C806.725 538.568 806.126 540.022 806.126 541.704C806.126 543.471 806.639 544.811 807.665 545.724C808.692 546.636 810.659 547.52 813.51 548.318C816.361 549.116 818.471 549.915 819.811 550.684C821.151 551.454 822.319 552.566 823.346 554.049C824.914 556.301 825.712 558.924 825.712 561.889C825.712 565.994 824.372 569.415 821.721 572.152C819.069 574.889 815.762 576.286 811.799 576.286C807.751 576.286 804.415 574.946 801.792 572.295C799.169 569.644 797.83 566.251 797.744 562.088H804.216C804.757 567.534 807.295 570.271 811.856 570.271C813.938 570.271 815.677 569.558 817.074 568.104C818.471 566.65 819.183 564.882 819.183 562.773C819.183 559.58 817.302 557.356 813.567 556.073L811.942 555.531L810.06 554.932C807.494 554.134 805.812 553.507 805.071 553.108C804.301 552.709 803.503 551.996 802.648 551.027C800.624 548.774 799.597 546.009 799.597 542.702C799.597 538.881 800.823 535.717 803.275 533.208C805.727 530.699 808.834 529.445 812.569 529.445C816.076 529.445 818.984 530.613 821.293 532.923C823.574 535.289 824.8 538.311 824.971 542.046Z" fill="#2F2A76"/>
</svg>